<?xml version='1.0' encoding='utf-8'?>
<svg xmlns="http://www.w3.org/2000/svg" version="1.1" width="600px" height="976px" viewBox="0 0 600 976"> <g id="layer1"> <g style="fill:rgb(0,0,0); fill-opacity:1.0; stroke-linejoin: miter"> <path d="M299.2426,433.93323C298.9958,434.2025,298.59186,434.7635,298.34503,435.20105C297.51477,436.61475,297.21185,437.48987,296.9089,439.35236C296.59476,441.2036,296.43768,441.7646,296.01132,442.49387C295.7084,443.00998,294.67618,443.94122,294.5191,443.84024C294.30594,443.7168,294.27228,442.66217,294.44058,441.32703C294.6089,439.93576,294.7435,439.55432,295.3606,438.5782C295.62988,438.15186,295.67474,437.75916,295.43912,437.9162C295.14743,438.09576,294.04788,439.87967,293.87958,440.42944C293.62152,441.30457,293.4869,442.3368,293.4869,443.58215L293.4869,444.6817L293.07178,444.86124C292.44348,445.11926,291.8264,444.99585,291.38882,444.51343C290.90637,443.98608,290.7493,443.38022,290.7493,441.92166C290.7493,440.5304,290.91757,439.94702,291.7254,438.5782C292.38736,437.45624,292.03955,437.36646,291.2093,438.45477C290.37903,439.5431,289.7844,441.3719,289.7844,442.8192C289.7844,443.6495,289.81805,443.80658,290.2332,444.6593C290.77173,445.7588,290.79416,446.12906,290.39026,446.45444C289.6161,447.0603,288.78583,446.47687,287.8658,444.69293C287.43948,443.8739,287.38336,443.68317,287.3946,443.06607C287.41702,442.2919,287.5629,441.74216,288.11267,440.55286C288.3146,440.10406,288.44925,439.70016,288.40436,439.6665C288.24728,439.5094,287.8658,440.0255,287.2936,441.18115C286.7102,442.3368,286.69897,442.39288,286.69897,443.32413C286.69897,444.42365,286.91214,444.99585,287.67508,445.98322C288.00046,446.40955,288.10144,446.62274,288.0229,446.70126C287.77606,446.9481,287.24875,446.4993,286.28384,445.23148C285.0721,443.63828,284.56723,442.76312,284.3316,441.87677C284.17453,441.24847,284.17453,441.1363,284.34283,440.5641C284.44382,440.21625,284.7692,439.46454,285.0721,438.88113C285.67798,437.7367,285.63312,437.54596,284.8926,438.1855C284.39893,438.62305,283.90527,439.47577,283.43405,440.67627C283.10867,441.50653,283.075,441.56262,282.99646,441.27094C282.8394,440.6875,283.2994,439.34113,283.99503,438.32013C284.3316,437.81525,284.35406,437.71426,284.096,437.71426C283.99503,437.71426,283.66965,437.96112,283.37793,438.26404C282.69354,438.9709,282.2111,440.2948,282.22232,441.47287C282.22232,442.16852,282.2784,442.37045,282.69354,443.23438C283.075,444.03094,283.36673,444.42365,284.36526,445.45587C285.476,446.62274,285.55457,446.7237,285.45358,447.00418C285.37506,447.21738,285.25162,447.31836,285.04968,447.34076C284.87015,447.36322,284.71307,447.4642,284.6794,447.58762C284.56723,447.94666,284.23065,447.94666,283.2994,447.57642L282.40182,447.22858L281.84082,447.4081C281.49304,447.5315,281.12277,447.57642,280.89838,447.5315C280.6964,447.49786,280.0457,447.4193,279.46225,447.36322C278.49738,447.27347,278.14957,447.21738,276.8817,446.97052C276.27585,446.8471,276.05145,447.16125,276.0066,448.21594C275.97293,448.73203,275.9056,449.09106,275.80463,449.16962C275.6139,449.32666,275.6027,449.88763,275.77097,450.37012C275.86072,450.6394,276.0066,450.7628,276.4105,450.90863C277.53247,451.30133,278.37396,451.8623,278.5198,452.32233C278.55347,452.43454,278.66565,452.5243,278.77786,452.5243C279.06958,452.5243,279.21542,452.7375,279.35007,453.3994C279.43982,453.80334,279.51837,453.94922,279.63055,453.91553C279.73154,453.87067,279.81006,453.94922,279.85495,454.12872C279.89984,454.297,280.0008,454.39798,280.113,454.38678C280.25885,454.37555,280.30374,454.46527,280.30374,454.7458C280.30374,454.94775,280.37106,455.14972,280.4496,455.2058C280.52814,455.25067,280.64032,455.4414,280.6852,455.6209C280.7413,455.80045,280.83105,455.9351,280.9096,455.91266C280.97693,455.90143,281.03302,455.95752,281.03302,456.03607C281.03302,456.1034,281.1901,456.23804,281.38083,456.32776C281.7511,456.48483,281.7623,456.5185,281.8745,457.14682C281.91937,457.41608,281.99792,457.57315,282.09888,457.57315C282.18866,457.57315,282.26718,457.6517,282.26718,457.7527C282.26718,457.85364,282.36816,457.95465,282.49158,457.98828C282.615,458.02194,282.71597,458.1117,282.71597,458.20148C282.71597,458.3922,283.15353,458.69513,283.33307,458.6278C283.42282,458.58295,283.51257,458.75122,283.5799,459.11026C283.65845,459.57025,283.71454,459.6488,283.9277,459.62634C284.1521,459.5927,284.17453,459.6488,284.17453,460.1537C284.17453,460.58002,284.2082,460.69223,284.3316,460.64737C284.4326,460.6137,284.4999,460.7035,284.5448,460.92786C284.6009,461.17468,284.6794,461.27567,284.84772,461.27567C285.0048,461.27567,285.0721,461.3542,285.0721,461.54495C285.0721,461.72446,285.1282,461.80298,285.26285,461.79178C285.4087,461.78055,285.476,461.88153,285.5209,462.1508C285.55457,462.35275,285.63312,462.50983,285.6892,462.50983C285.75653,462.49863,285.85748,462.67813,285.9248,462.91376C285.99213,463.1718,286.07068,463.284,286.12677,463.20544C286.2726,462.96985,286.38483,463.0596,286.5868,463.5869C286.7102,463.9123,286.83362,464.0806,286.92337,464.0357C287.02435,464.00204,287.12534,464.11426,287.20386,464.34988C287.2936,464.64157,287.37216,464.72012,287.52924,464.67523C287.67508,464.64157,287.75363,464.6977,287.80972,464.88843C287.8658,465.04547,287.9107,465.09036,287.95557,465.0006C288.04535,464.7762,288.32584,464.84354,288.32584,465.1016C288.32584,465.2699,288.38193,465.31476,288.52777,465.2699C288.69608,465.21378,288.7522,465.2811,288.84195,465.6177C288.90924,465.87573,289.01022,466.03284,289.09998,466.01038C289.18976,465.98795,289.32437,466.08893,289.41415,466.21234C289.52634,466.36942,289.64975,466.42554,289.79562,466.3806C289.91904,466.33575,290.0088,466.3582,290.0088,466.43674C290.0088,466.51526,290.08734,466.53772,290.1883,466.50406C290.28928,466.45917,290.43515,466.48163,290.51367,466.54892C290.61465,466.63867,290.67075,466.60504,290.71564,466.42554C290.77173,466.21234,290.8054,466.2011,290.95123,466.32452C291.0971,466.43674,291.16443,466.43674,291.31027,466.31332C291.45612,466.18988,291.501,466.2011,291.59076,466.3582C291.6693,466.49283,291.84882,466.54892,292.1742,466.54892C292.76883,466.56015,293.67764,466.93042,294.58643,467.53625C295.14743,467.92896,295.4167,468.22067,295.91037,468.9948C296.69574,470.21777,297.20062,470.75632,297.9187,471.11536C298.23285,471.27243,298.4909,471.40707,298.51334,471.4295C298.52454,471.44073,298.62552,471.90073,298.7265,472.4505C298.97333,473.85297,298.9509,475.54715,298.65918,476.91595C298.38992,478.195,298.35626,479.07013,298.59186,479.81064C298.6704,480.10236,298.7265,480.50626,298.70407,480.7082C298.68164,480.91016,298.6031,481.58334,298.53577,482.20044C298.1992,485.35315,297.7616,486.30682,296.1123,487.55225C295.32693,488.14688,295.1811,488.34882,295.38303,488.58444C295.51767,488.74152,296.79672,488.98834,297.50354,488.98834C297.885,488.98834,297.96356,488.94348,298.08698,488.66296C298.2665,488.2254,298.5021,488.02344,298.98456,487.90002C299.2426,487.83273,299.3885,487.72052,299.41092,487.57465C299.42212,487.46246,299.51187,487.00247,299.60162,486.5761C299.68018,486.13855,299.81482,484.96048,299.88214,483.93948C300.06165,481.30286,300.16263,480.66333,300.488,479.9677C300.64508,479.6311,300.84705,479.0589,300.93677,478.6999C301.02655,478.34085,301.36313,477.31985,301.67728,476.42227C301.99142,475.5247,302.38412,474.21198,302.53,473.50516C302.84412,472.06903,303.09097,471.58658,302.99,472.60757C302.95633,472.94415,302.97876,473.75198,303.02365,474.4027C303.09097,475.23297,303.06854,476.05203,302.9451,477.15155C302.78802,478.7111,302.78802,478.74475,303.03488,479.3955C303.23682,479.94525,303.45,480.23697,304.2578,481.02234C304.78516,481.54968,305.6715,482.5819,306.22125,483.3224C307.93787,485.6449,308.0052,485.73462,308.09497,485.73462C308.20715,485.73462,309.6545,487.1932,310.30524,487.96735C310.88867,488.6742,311.14673,488.68542,311.51697,488.03467C311.7077,487.6981,311.77502,487.40637,311.77502,486.87906L311.77502,486.1834L311.21405,485.8356C310.81012,485.58878,310.6306,485.39804,310.5633,485.13998C310.49597,484.87073,310.3389,484.70242,309.96866,484.50046C308.82425,483.86096,307.7247,482.82874,306.2437,480.9887C305.58173,480.16965,305.40222,479.82184,305.26758,479.115C305.16663,478.59888,305.18906,478.49792,305.6042,477.634C306.22125,476.31006,306.7486,474.80664,307.17496,473.11246C307.3769,472.30463,307.6686,471.3734,307.8369,471.0368L308.12863,470.41974L308.71204,470.45337C309.38522,470.49826,310.97842,470.24023,311.94333,469.9373C312.76236,469.69043,313.4692,469.7802,315.49997,470.39728C316.22925,470.62167,317.2278,470.8573,317.7327,470.92462C318.22638,470.99194,318.84344,471.16022,319.1015,471.29486C319.47174,471.4856,319.76346,471.5417,320.44788,471.5417L321.31177,471.5305L321.42398,471.9344C321.48007,472.14755,321.63715,472.83197,321.7718,473.44904C321.90643,474.06613,322.1645,475.0759,322.36642,475.693C322.6806,476.714,322.71423,476.94962,322.71423,478.32962L322.71423,479.8443L322.19812,480.91016C321.58105,482.1892,318.1815,487.31662,317.7776,487.57465C317.62048,487.67566,317.34,487.96735,317.1605,488.2254C316.96976,488.48346,316.56586,488.8425,316.24048,489.03323C315.92633,489.22397,315.5673,489.52692,315.43265,489.6952C315.19702,490.00934,315.19702,490.02057,315.42145,490.17764C315.75803,490.42447,316.3639,490.5591,317.19415,490.5591L317.9571,490.5591L318.17026,490.07666C318.2937,489.8186,318.60782,489.3586,318.8883,489.05566C319.30347,488.59564,319.42688,488.51712,319.6737,488.58444C320.0215,488.6742,320.0664,488.6181,320.73956,487.3054C321.62592,485.5551,324.285,481.41504,325.66504,479.61987C326.00162,479.19354,326.3719,478.64377,326.48407,478.40817L326.70847,477.9818L326.40552,476.55692C326.09137,475.03104,325.99042,473.04514,326.21478,472.82074C326.30457,472.731,326.4504,472.83197,326.76456,473.17978C327.00018,473.44904,328.05484,474.52615,329.1095,475.5808C330.97195,477.43204,331.03928,477.5218,331.66757,478.74475C332.61005,480.596,333.0588,482.67166,333.17102,485.73462C333.23834,487.7766,333.20468,487.94492,332.52026,488.74152C332.34076,488.94348,332.1949,489.15665,332.1949,489.21274C332.1949,489.26886,332.04904,489.39227,331.8583,489.49323C331.331,489.7625,330.73633,490.33472,330.73633,490.57034C330.73633,490.85083,331.0617,490.97424,332.0378,491.064C333.03638,491.16498,333.3842,491.03033,333.60858,490.4806C333.69833,490.24496,333.81055,489.9981,333.8554,489.9308C334.58472,488.80884,334.80908,488.53955,335.0447,488.47223C335.56082,488.34882,335.57202,487.54102,335.11203,484.89316C334.68567,482.4136,334.37152,478.35205,334.5286,477.0618C334.652,475.9174,334.61835,475.83887,333.40662,474.53735C332.73346,473.80807,332.37442,473.31442,332.0378,472.60757C331.62268,471.74365,331.57782,471.56415,331.54416,470.6329C331.5105,469.72412,331.55536,469.37628,331.97052,467.7158C332.22858,466.67236,332.5315,465.49426,332.6549,465.09036C332.77832,464.68646,332.91296,463.88983,332.94662,463.32886C333.02515,462.16205,333.20468,461.9152,333.20468,462.96985C333.20468,463.65424,333.20468,463.65424,333.4515,463.49716C333.87787,463.20544,334.20322,462.42007,334.21445,461.65714C334.21445,460.0976,333.6759,459.27856,332.11636,458.5044C331.6339,458.25757,330.9944,457.8873,330.69147,457.67413C330.39975,457.44977,329.8163,457.1356,329.4124,456.95605C328.99728,456.78778,328.13336,456.35022,327.4826,455.9912C326.01285,455.18335,325.39575,455.03754,322.77036,454.89166C321.5362,454.82434,320.01028,454.65604,319.01175,454.48773C317.59805,454.2409,316.90244,454.1848,314.69214,454.15112C313.2448,454.1175,311.83112,454.0726,311.55063,454.03894C310.81012,453.938,309.20572,453.4331,308.6896,453.14136C308.02765,452.77112,306.77103,452.32233,305.88467,452.1316C304.22415,451.7838,301.2173,452.00818,299.10797,452.63647C298.6704,452.7599,298.25528,452.83844,298.18796,452.80478C298.13187,452.7599,297.82892,452.79358,297.51477,452.8721C297.05478,452.9955,296.93134,452.9955,296.86404,452.8721C296.79672,452.77112,296.63965,452.7487,296.30304,452.80478C295.73083,452.89453,295.6635,452.88333,295.7084,452.6814C295.73083,452.58038,295.6523,452.5243,295.484,452.5243C295.2708,452.5243,295.2596,452.50183,295.39426,452.4121C295.5401,452.3111,295.5401,452.2999,295.39426,452.2999C295.3045,452.2999,295.04645,452.3448,294.83325,452.4121C294.564,452.49063,294.42935,452.47943,294.37326,452.40088C294.31714,452.3111,294.23862,452.3111,294.0703,452.40088C293.74496,452.58038,293.20642,452.55792,293.03812,452.356C292.95956,452.255,292.71274,452.18768,292.45468,452.18768C291.8937,452.18768,290.27805,451.5033,289.79562,451.06573L289.43658,450.72913L289.71707,450.37012C290.1771,449.74182,290.56976,448.9228,290.56976,448.5413L290.56976,448.18225L291.501,448.11493C292.64542,448.0476,293.28494,447.812,295.3157,446.69003C297.7504,445.36612,297.51477,445.39978,299.05188,446.18515C301.0041,447.18372,301.61,447.6325,303.04608,449.1023C304.05585,450.1457,304.61685,450.6057,305.48077,451.15546C306.5803,451.8399,307.28714,452.1204,307.28714,451.87354C307.28714,451.8062,306.84958,451.41354,306.31104,450.9984C304.94223,449.95496,304.34756,449.36032,303.5622,448.28326C303.1695,447.73346,302.57486,447.10516,302.11487,446.73492C301.6885,446.39832,301.32947,446.02808,301.32947,445.92712C301.29584,445.50076,301.37436,445.27637,301.59875,445.04074L301.84558,444.78268L302.9451,445.3549C303.71927,445.7476,304.1905,446.08417,304.57196,446.4881C305.73883,447.75592,306.31104,448.2608,307.56763,449.09106C308.2857,449.5735,308.914,449.93256,308.94766,449.88763C308.98132,449.854,308.7457,449.58472,308.42035,449.29303C306.60272,447.69983,304.59442,445.16418,304.59442,444.49097C304.59442,444.35632,304.7627,444.01974,304.9759,443.7505C305.48077,443.1222,307.24225,440.30603,307.34323,439.98065C307.3769,439.846,307.36566,439.73383,307.30957,439.73383C307.17496,439.73383,305.7837,441.27094,304.95343,442.32556C304.63928,442.7407,304.20172,443.15582,303.98856,443.25684C303.57343,443.45877,303.06854,443.49243,302.97876,443.33533C302.9451,443.27924,303.09097,442.78558,303.31537,442.24704C303.7305,441.21484,304.14563,439.65527,304.14563,439.17285L304.1344,438.89233L303.83148,439.25137C303.66318,439.4421,303.36023,440.0031,303.14706,440.48553C302.1485,442.7968,302.10364,442.87534,301.84558,442.87534C301.71094,442.87534,301.509,442.77435,301.3968,442.65094C300.9929,442.21338,301.22852,440.18262,301.94656,437.87134C302.3617,436.51373,302.50754,435.6947,302.39536,435.14496C302.29437,434.6625,302.11487,434.75226,301.94656,435.36935C301.82312,435.8518,301.6885,436.1996,300.85825,438.11816C300.63385,438.62305,300.33093,439.52063,300.17386,440.1153C300.01678,440.69873,299.76993,441.42798,299.61285,441.71973C299.27628,442.38165,298.5021,443.27924,298.07574,443.50366C297.7616,443.6607,297.73917,443.6607,297.61575,443.38022C297.51477,443.14462,297.526,442.84167,297.72797,441.77582C297.8738,441.05774,298.03088,440.0031,298.08698,439.4533C298.25528,437.69183,298.6031,436.46887,299.42212,434.74103C299.73627,434.0791,299.99432,433.5069,299.99432,433.49567C299.99432,433.4732,299.927,433.45078,299.83725,433.45078C299.75873,433.45078,299.48944,433.66394,299.2426,433.93323 Z M300.77972,444.4461C301.04898,444.61438,300.75726,444.8051,300.2636,444.76025C299.79236,444.7266,299.71384,444.5471,300.12897,444.42365C300.4992,444.3227,300.589,444.3227,300.77972,444.4461 Z M288.94293,448.48517C288.15753,448.86667,288.1463,448.87787,288.05655,448.6535C287.9668,448.41788,288.50534,448.15982,289.1112,448.15982L289.6161,448.15982L288.94293,448.48517 Z"/> </g> </g> </svg>